{"title":"666.The.Devils.Child.2014.WebRip.x264-RR","uid":11952444,"size":805705229,"categoryP":"video","categoryS":"movies","magnet":"?xt=urn:btih:bc630d4efe041fbb0ea2eeff5c715bd636fb3256&amp;dn=666.The.Devils.Child.2014.WebRip.x264-RR&amp;tr=udp%3A%2F%2Ftracker.openbittorrent.com%3A80&amp;tr=udp%3A%2F%2Fopen.demonii.com%3A1337&amp;tr=udp%3A%2F%2Ftracker.coppersurfer.tk%3A6969&amp;tr=udp%3A%2F%2Fexodus.desync.com%3A6969","seeders":0,"leechers":0,"uploader":".BONE.","files":1,"time":1432215933,"description":"Storyline\n\n&quot;666 The Devil's Child&quot; is the story of two friends, a young woman and young man,\nwho visit another young woman who they've met on the internet. Once they arrive at\nthe woman's remote house unexplainable things begin to happen, and the woman who\nowns the house is anything but what they expect.\n\nTechnical Specs:\n\nVideo\nID : 1\nFormat : AVC\nFormat/Info : Advanced Video Codec\nFormat profile : Baseline@L3\nFormat settings, CABAC : No\nFormat settings, ReFrames : 1 frame\nCodec ID : avc1\nCodec ID/Info : Advanced Video Coding\nDuration : 1h 14mn\nBit rate : 1 302 Kbps\nWidth : 680 pixels\nHeight : 380 pixels\nDisplay aspect ratio : 16:9\nFrame rate mode : Constant\nFrame rate : 25.000 fps\nColor space : YUV\nChroma subsampling : 4:2:0\nBit depth : 8 bits\nScan type : Progressive\nBits/(Pixel*Frame) : 0.202\nStream size : 697 MiB (91%)\nWriting library : x264 core 120\nLanguage : English\nEncoded date : UTC 1904-01-01 00:00:00\nTagged date : UTC 1904-01-01 00:00:00\n\nAudio\nID : 2\nFormat : AAC\nFormat/Info : Advanced Audio Codec\nFormat profile : LC\nCodec ID : 40\nDuration : 1h 14mn\nBit rate mode : Constant\nBit rate : 128 Kbps\nChannel(s) : 2 channels\nChannel positions : Front: L R\nSampling rate : 44.1 KHz\nCompression mode : Lossy\nStream size : 68.5 MiB (9%)\nLanguage : English\nEncoded date : UTC 1904-01-01 00:00:00\nTagged date : UTC 1904-01-01 00:00:00","torrent":{"xt":"urn:btih:bc630d4efe041fbb0ea2eeff5c715bd636fb3256","amp;dn":"666.The.Devils.Child.2014.WebRip.x264-RR","amp;tr":["udp%3A%2F%2Ftracker.openbittorrent.com%3A80","udp%3A%2F%2Fopen.demonii.com%3A1337","udp%3A%2F%2Ftracker.coppersurfer.tk%3A6969","udp%3A%2F%2Fexodus.desync.com%3A6969"],"infoHash":"bc630d4efe041fbb0ea2eeff5c715bd636fb3256","infoHashBuffer":{"type":"Buffer","data":[188,99,13,78,254,4,31,187,14,162,238,255,92,113,91,214,54,251,50,86]},"announce":[],"urlList":[]}}